<svg height="512pt" viewBox="-66 0 512 512" width="512pt" xmlns="http://www.w3.org/2000/svg"><path d="m380.773438 190.394531c0 57.550781-29.421876 102.441407-62.191407 147.140625l-77.796875 106.105469c-4.21875 5.75-8.480468 11.660156-12.609375 17.371094-8.359375 11.578125-17 23.546875-25.890625 35.128906l-11.898437 15.5-.28125.359375-127.917969-174.464844c-32.769531-44.699218-62.1875-89.589844-62.1875-147.148437 0-104.976563 85.398438-190.386719 190.367188-190.386719h.777343c104.628907.421875 189.628907 85.667969 189.628907 190.394531zm0 0" fill="#00da78"/><path d="m314.113281 190.386719c0 68.226562-55.507812 123.726562-123.726562 123.726562s-123.726563-55.5-123.726563-123.726562c0-68.21875 55.507813-123.71875 123.726563-123.71875s123.726562 55.5 123.726562 123.71875zm0 0" fill="#fff"/><path d="m380.773438 190.394531c0 57.550781-29.421876 102.441407-62.191407 147.140625l-77.796875 106.105469c-4.21875 5.75-8.480468 11.660156-12.609375 17.371094-8.359375 11.578125-17 23.546875-25.890625 35.128906l-11.898437 15.5v-511.640625h.757812c104.628907.421875 189.628907 85.667969 189.628907 190.394531zm0 0" fill="#00b77a"/><path d="m314.113281 190.386719c0 68.226562-55.507812 123.726562-123.726562 123.726562v-247.445312c68.21875 0 123.726562 55.5 123.726562 123.71875zm0 0" fill="#d6d6d8"/><path d="m252.703125 202.015625c-5.6875 10.421875-14.199219 18.421875-21.707031 25.488281-1.210938 1.140625-2.410156 2.261719-3.582032 3.390625-4.578124 4.390625-9.160156 8.582031-13.589843 12.640625-4.296875 3.921875-8.738281 7.988282-13.046875 12.121094l-10.390625 9.980469-10.390625-9.980469c-4.308594-4.132812-8.75-8.199219-13.050782-12.121094-4.429687-4.058594-9.007812-8.25-13.589843-12.640625-1.167969-1.128906-2.367188-2.25-3.578125-3.390625-7.511719-7.066406-16.019532-15.066406-21.710938-25.488281-8.160156-14.910156-7.878906-32.230469.75-46.328125 8.492188-13.859375 21.71875-21.558594 37.25-21.679688 8.488282-.070312 16.839844 2.191407 24.320313 6.519532 7.347656-4.269532 15.597656-6.519532 23.96875-6.519532h.359375c15.519531.121094 28.75 7.820313 37.242187 21.679688 8.628907 14.097656 8.90625 31.417969.746094 46.328125zm0 0" fill="#ff623f"/><path d="m252.703125 202.015625c-5.6875 10.421875-14.199219 18.421875-21.707031 25.488281-1.210938 1.140625-2.410156 2.261719-3.582032 3.390625-4.578124 4.390625-9.160156 8.582031-13.589843 12.640625-4.296875 3.921875-8.738281 7.988282-13.046875 12.121094l-10.390625 9.980469v-125.109375c7.347656-4.269532 15.597656-6.519532 23.96875-6.519532h.359375c15.519531.121094 28.75 7.820313 37.242187 21.679688 8.628907 14.097656 8.90625 31.417969.746094 46.328125zm0 0" fill="#e30020"/></svg>