<svg height="511pt" viewBox="0 -117 511.99678 511" width="511pt" xmlns="http://www.w3.org/2000/svg"><path d="m402.257812 120.867188s63.980469 29.964843 82.589844 37.578124v32.605469l-86.742187 45.851563h-211.445313l-167.542968-145.738282c10.421874-27.925781 25.742187-43.09375 36.355468-50.765624 6.023438-4.355469 14.398438-2.992188 18.878906 2.929687 34.550782 45.59375 79.769532 36.359375 105.773438 25.363281 12.375-5.234375 19.160156-18.628906 16.140625-31.726562h34.914063l64.535156 61.871094zm0 0" fill="#d7ecec"/><path d="m42.949219 111.894531c1.742187-7.582031 3.824219-14.488281 6.164062-20.730469 7.980469-21.378906 18.824219-35.273437 28.234375-44.058593-.007812-.011719-.019531-.023438-.027344-.035157-1.019531-1.21875-2.007812-2.472656-2.96875-3.742187-1.398437-1.851563-3.179687-3.257813-5.152343-4.179687-3.976563-1.871094-8.757813-1.710938-12.570313.5-4.984375 2.886718-9.453125 7.378906-13.378906 11.53125-3.179688 3.363281-6.445312 7.304687-9.648438 11.914062-5.207031 7.484375-10.25 16.722656-14.484374 28.070312zm0 0" fill="#d9d9d9"/><path d="m122.136719 166.300781-19.519531 18.246094-76.035157-8.671875-19.011719-9.003906v-3.332032c0-30.535156 4.730469-54.167968 11.546876-72.375l49.222656 17.398438c6.15625 2.179688 12.039062 5.070312 17.519531 8.613281 7.394531 4.773438 13.957031 10.644531 19.460937 17.378907 5.511719 6.734374 9.976563 14.316406 13.1875 22.511718zm0 0" fill="#f05e71"/><path d="m402.257812 120.855469v.011719s-13.5 55.007812-63.523437 32.496093c-43.992187-19.789062-62.832031-32.234375-97.6875-23.730469-10.027344 2.441407-20.601563-.339843-28.015625-7.515624h-.007812c-6.003907-5.800782-9.105469-13.617188-9.105469-21.5 0-5.710938 1.628906-11.457032 4.972656-16.496094 7.511719-11.347656 6.351563-26.355469-2.824219-36.410156l-9.804687-10.746094c-1.949219-8.453125 1.742187-17.207032 9.164062-21.707032l5.144531-3.132812c11.175782-6.773438 25.5-5.074219 34.785157 4.121094 42.042969 41.628906 104.074219 78.078125 156.902343 104.609375zm0 0" fill="#f05e71"/><path d="m255.050781 79.859375c-3.628906.347656-7.386719-.617187-10.511719-2.996094-6.597656-5.023437-7.871093-14.4375-2.851562-21.03125l20.988281-27.566406c5.019531-6.59375 14.4375-7.871094 21.03125-2.847656 6.59375 5.019531 7.871094 14.4375 2.847657 21.03125l-20.984376 27.5625c-2.640624 3.46875-6.5 5.464843-10.519531 5.847656zm0 0" fill="#d7ecec"/><path d="m302.496094 113.828125c-3.625.347656-7.386719-.617187-10.511719-3-6.59375-5.019531-7.871094-14.4375-2.851563-21.03125l20.988282-27.5625c5.019531-6.59375 14.4375-7.871094 21.03125-2.851563 6.59375 5.023438 7.871094 14.4375 2.847656 21.03125l-20.984375 27.566407c-2.640625 3.46875-6.5 5.464843-10.519531 5.847656zm0 0" fill="#d7ecec"/><path d="m37.460938 177.117188c-.03125-4.945313.105468-9.769532.105468-13.65625.007813-25.460938 3.308594-46.105469 8.363282-62.820313l-26.8125-9.476563c-1.226563 3.277344-2.382813 6.742188-3.460938 10.378907-3.886719 13.140625-6.128906 26.691406-7.238281 40.339843-.671875 8.320313-.847657 16.644532-.847657 24.988282l19.011719 9.003906zm0 0" fill="#e85066"/><path d="m466.316406 170.140625c-34.695312 20.722656-84.851562 44.082031-134.585937 44.082031-89.375 0-128.0625-64.691406-324.160157-47.351562v11.445312c0 4.261719.570313 8.433594 1.652344 12.425782l128.851563 68.273437c27.316406 3.179687 106.132812 10.574219 249.015625 10.574219 3.78125 0 7.453125-.128906 11.015625-.371094l68.210937-44.339844 22.492188-34.136718zm0 0" fill="#7bcbd7"/><path d="m486.578125 159.15625c-.570313-.230469-1.140625-.46875-1.730469-.710938-5.503906 3.671876-11.714844 7.632813-18.527344 11.695313v18.6875c0 7.910156-3.414062 15.429687-9.359374 20.640625-5.972657 5.230469-15.265626 11.972656-29.183594 18.929688-17.027344 8.515624-25.519532 26.695312-29.671875 40.820312 70.183593-4.832031 97.035156-55.234375 104.230469-72.542969 1.429687-3.453125 2.148437-7.164062 2.148437-10.90625.003906-11.6875-7.082031-22.210937-17.90625-26.613281zm0 0" fill="#5c5766"/><path d="m43.417969 208.859375c-1.800781-4.878906-3.214844-9.457031-4.203125-13.117187-2.28125-8.488282-1.714844-21.839844-1.65625-30.964844-9.574219.480468-19.554688 1.167968-29.988282 2.09375 0 7.207031-.4375 14.488281 1.109376 21.578125.167968.769531.335937 1.535156.542968 2.292969zm0 0" fill="#44b3e3"/><path d="m138.074219 259.015625c-1.941407-.230469-3.621094-.429687-5.050781-.609375-3.902344-.5-7.714844-1.472656-11.378907-2.902344l-83.738281-32.746094c-14.328125-5.605468-24.8125-17.628906-28.683594-32.015624h18.886719c15.050781 0 29.9375 3.039062 43.773437 8.945312l8.855469 3.78125c25.460938 10.863281 45.8125 30.734375 57.335938 55.546875zm0 0" fill="#5c5766"/><path d="m49.585938 227.324219 2.898437 1.132812c-6.359375-10.726562-10.972656-24.191406-13.269531-32.71875-.371094-1.386719-.660156-2.914062-.898438-4.523437-3.386718-.308594-6.792968-.472656-10.207031-.472656h-18.886719c3.246094 12.070312 11.164063 22.460937 22.085938 28.808593 2.097656 1.21875 4.292968 2.304688 6.597656 3.207031zm0 0" fill="#514e5b"/><path d="m2 192.707031c4.535156 16.835938 16.941406 30.679688 33.1875 37.035157 0 0 83.738281 32.742187 83.746094 32.746093 5.90625 2.308594 12.027344 3.234375 18.289062 3.972657 21.644532 2.523437 83.695313 8.5625 192.128906 10.203124h.117188c4.089844 0 7.433594-3.28125 7.496094-7.386718.0625-4.140625-3.242188-7.546875-7.386719-7.609375-101.582031-1.535157-162.015625-6.9375-186.550781-9.640625-14.179688-27.859375-39.941406-47.121094-68.1875-59.238282-14.714844-6.3125-30.710938-9.546874-46.714844-9.546874h-12.738281c-.597657-.085938-.214844-9.480469-.300781-9.472657.195312-.015625.398437-.035156.59375-.050781 49.535156-3.902344 99.8125-3.449219 148.664062 6.417969 4.058594.816406 8.015625-1.808594 8.835938-5.878907.816406-4.058593-1.808594-8.015624-5.867188-8.832031-5.953125-1.324219-12.011719-2.273437-18.03125-3.222656-7.160156-1.128906-14.398438-2.089844-21.816406-2.886719-10.445313-26.546875-29.164063-48.097656-56.609375-57.824218l-41.828125-14.785157c9.441406-21.496093 21.769531-33.667969 30.851562-40.230469 2.707032-1.957031 6.445313-1.351562 8.511719 1.382813 38.0625 50.230469 88.183594 38.941406 114.671875 27.738281 9.3125-3.9375 16.136719-11.476562 19.359375-20.4375.074219.105469.152344.210938.226563.316406 4.847656 7.304688 4.851562 17.140626.03125 24.457032-7.148438 10.851562-8.191407 25.203125-2.496094 36.992187 7.542968 15.601563 25.886718 24.078125 42.65625 19.988281 9.429687-2.300781 19.191406-3.199218 28.832031-1.777343 15.109375 2.226562 29.410156 9.046875 43.109375 15.476562 20.363281 9.558594 42.707031 22.335938 65.253906 11.414063.03125-.015625.066406-.027344.101563-.046875 12.441406-6 21.121093-17.910157 26.332031-30.402344.054688-.128906.117188-.265625.171875-.394531 13.765625 6.417968 43.09375 20.039062 62.324219 28.566406-.230469.144531-6.449219 3.9375-6.480469 3.953125-32.863281 19.625-82.222656 43.019531-130.742187 43.019531-32.339844 0-58.097657-8.910156-87.921876-19.222656-14.480468-5.007812-29.453124-10.1875-46.710937-14.949219-3.992187-1.105469-8.121094 1.242188-9.226563 5.242188-1.101562 3.992187 1.242188 8.121093 5.234376 9.222656 16.789062 4.632813 31.53125 9.730469 45.789062 14.660156 31.105469 10.757813 57.972656 20.042969 92.835938 20.042969 44.726562 0 88.53125-17.09375 127.089843-38.59375v5.703125c0 5.6875-2.527343 11.253906-6.804687 15-8.253906 7.234375-17.808594 12.976563-27.597656 17.867187-15.855469 7.929688-26.074219 23.761719-31.789063 40.066407-.027344.078125-.058594.15625-.082031.234375-11.03125.382812-22.097656-.003906-33.128906-.003906-.019532 0-.035157 0-.054688 0-4.113281 0-7.46875 3.324218-7.496094 7.449218-.027344 4.140625 3.304688 7.519532 7.445313 7.550782 9.171875.0625 18.515625.097656 27.777343.097656 3.835938 0 7.710938-.132813 11.527344-.390625 31.886719-2.195313 58.921875-13.5 80.355469-33.605469 17.382813-16.304688 26.4375-34.28125 30.289063-43.550781 1.808593-4.355469 2.722656-8.992188 2.722656-13.777344 0-14.808594-8.863282-27.980469-22.601563-33.566406 0 0-83.742187-38.035157-83.761719-38.046875-22.375-11.238282-43.421874-22.789063-62.707031-34.394532 1.457031-3.589843 1.984375-7.511718 1.449219-11.457031-.808594-5.957031-3.886719-11.242187-8.667969-14.882812-9.019531-6.867188-22.148437-5.839844-29.941406 2.394531-3.871094-2.6875-7.621094-5.363281-11.230469-8 2.171875-4.113281 3.03125-8.777344 2.394532-13.480469-.808594-5.957031-3.886719-11.242187-8.667969-14.882812-8.222657-6.261719-20.046875-6.054688-27.992188.566406-3.382812-3.074219-6.613281-6.121094-9.625-9.101563-6.78125-6.714843-15.773437-10.414062-25.316406-10.414062-9 0-16.308594 3.796875-23.777344 8.34375-10.210937 6.191406-15.265625 18.167969-12.582031 29.804688 2.210938 9.59375-2.730469 19.320312-11.75 23.136718-27.457031 11.605469-66.546875 17.042969-96.875-22.980468-6.910156-9.136719-20.03125-11.144532-29.25-4.484376-11.714844 8.464844-27.984375 24.742188-38.988281 54.214844-7.976563 21.316406-12.0234378 46.550782-12.0234378 75.003906.0039063 9.734376-.6953122 19.675782 1.9179688 29.167969zm493.425781 1.089844c-3.386719 8.152344-11.359375 23.972656-26.699219 38.359375-16.203124 15.199219-36.160156 24.6875-59.453124 28.289062.171874-.394531.34375-.789062.527343-1.183593 4.546875-9.890625 11.40625-19.191407 21.34375-24.15625 10.929688-5.460938 21.558594-11.925781 30.769531-20 7.574219-6.636719 11.917969-16.214844 11.917969-26.277344v-14.453125c.15625-.09375 8.039063-4.984375 11.761719-7.429688 6.992188 3.636719 11.40625 10.820313 11.40625 18.824219.003906 2.800781-.527344 5.503907-1.574219 8.027344zm-173.339843-129.957031c1.59375-.003906 3.195312.488281 4.539062 1.511718 1.59375 1.214844 2.621094 2.976563 2.890625 4.964844.410156 3-1.164063 5.164063-2.875 7.410156 0 0-19.554687 25.683594-19.578125 25.710938-2.457031 3.230469-7.289062 3.886719-10.523438 1.425781-3.292968-2.507812-3.933593-7.226562-1.425781-10.523437 0 0 20.964844-27.535156 20.988281-27.566406 1.460938-1.914063 3.714844-2.925782 5.984376-2.933594zm-47.441407-33.914063c1.609375-.015625 3.222657.457031 4.535157 1.457031 3.261718 2.484376 3.910156 7.257813 1.425781 10.523438 0 0-20.984375 27.5625-20.988281 27.5625-2.445313 3.210938-7.253907 3.914062-10.523438 1.425781-3.25-2.476562-3.898438-7.273437-1.425781-10.523437 0 0 20.988281-27.5625 20.988281-27.566406 1.417969-1.859376 3.699219-2.859376 5.988281-2.878907zm-65.300781-8.265625c5.078125-3.09375 9.808594-6.164062 15.988281-6.164062 5.5625 0 10.808594 2.15625 14.765625 6.078125 3.324219 3.289062 6.878906 6.652343 10.621094 10.035156 0 0-14.972656 19.667969-14.980469 19.675781-7.410156 9.730469-5.429687 24.15625 4.273438 31.542969 9.671875 7.367187 24.117187 5.472656 31.539062-4.273437l14.167969-18.609376c3.492188 2.554688 7.117188 5.136719 10.847656 7.734376 0 0-13.378906 17.570312-13.382812 17.578124-7.386719 9.695313-5.394532 24.179688 4.273437 31.539063 9.683594 7.375 24.105469 5.488281 31.539063-4.273437l15.484375-20.335938c18.128906 10.9375 37.796875 21.816406 58.628906 32.4375-.707031 1.78125-1.625 3.867188-2.78125 6.078125-4.960937 9.484375-12.808594 18.125-23.8125 20.011719-11.664063 1.996094-23.195313-3.464844-33.511719-8.207032-22.253906-10.222656-45.4375-22.992187-70.570312-23.082031-.132813 0-.261719-.007812-.390625-.007812-.035157 0-.070313 0-.113281 0-11.902344.003906-27.140626 6.882812-38.304688 1.140625-.101562-.054688-.199219-.105469-.296875-.160156-11.375-6.019532-15.285156-21.398438-8.171875-32.136719 9.429688-14.238281 7.976562-32.992188-3.53125-45.601563l-8.316406-9.113281c-.417969-4.742187 1.867187-9.359375 6.035156-11.886719zm-181.21875 176.578125c16.703125 0 31.957031 4.554688 47.160156 11.050781 19.4375 8.300782 36.246094 21.167969 48.066406 38.824219l-82.699218-32.339843c-8.621094-3.371094-15.757813-9.636719-20.273438-17.535157zm53.652344-74.71875c12.710937 8.28125 22.984375 20.320313 28.933594 34.292969-12.835938-.925781-26.191407-1.394531-39.859376-1.394531-17.910156 0-35.84375.746093-53.699218 2.148437-.675782.050782-1.347656.097656-2.027344.148438.371094-21.628906 3.265625-41.074219 8.625-57.964844 0 0 42.09375 14.878906 42.097656 14.878906 5.609375 1.980469 10.957032 4.648438 15.929688 7.890625zm0 0"/></svg>